<svg id="a558ce24-c316-4979-8b6d-6e9831eceb7c" data-name="Layer 1" xmlns="http://www.w3.org/2000/svg" width="810.54221" height="574.17569" viewBox="0 0 810.54221 574.17569"><path d="M798.27111,458.88773H528.27056a5.00589,5.00589,0,0,1-5-5V330.91217a5.00589,5.00589,0,0,1,5-5H798.27111a5.00589,5.00589,0,0,1,5,5V453.88773A5.00589,5.00589,0,0,1,798.27111,458.88773Z" transform="translate(-194.72889 -162.91216)" fill="#fff"/><path d="M798.27111,458.88773H528.27056a5.00589,5.00589,0,0,1-5-5V330.91217a5.00589,5.00589,0,0,1,5-5H798.27111a5.00589,5.00589,0,0,1,5,5V453.88773A5.00589,5.00589,0,0,1,798.27111,458.88773ZM528.27056,327.91217a3.00328,3.00328,0,0,0-3,3V453.88773a3.00328,3.00328,0,0,0,3,3H798.27111a3.00329,3.00329,0,0,0,3-3V330.91217a3.00328,3.00328,0,0,0-3-3Z" transform="translate(-194.72889 -162.91216)" fill="#3f3d56"/><circle cx="368.54165" cy="201.48753" r="21" fill="#f9a826"/><path d="M611.77056,350.39969a3.5,3.5,0,0,0,0,7h165a3.5,3.5,0,0,0,0-7Z" transform="translate(-194.72889 -162.91216)" fill="#e6e6e6"/><path d="M611.77056,371.39969a3.5,3.5,0,0,0,0,7h71a3.5,3.5,0,0,0,0-7Z" transform="translate(-194.72889 -162.91216)" fill="#e6e6e6"/><path d="M547.163,404.9726c-2.66235,0-4.82892,1.57031-4.82892,3.5s2.16657,3.5,4.82892,3.5H774.81224c2.66236,0,4.82892-1.57032,4.82892-3.5s-2.16656-3.5-4.82892-3.5Z" transform="translate(-194.72889 -162.91216)" fill="#e6e6e6"/><path d="M547.163,425.9726c-2.66235,0-4.82892,1.57031-4.82892,3.5s2.16657,3.5,4.82892,3.5H774.81224c2.66236,0,4.82892-1.57032,4.82892-3.5s-2.16656-3.5-4.82892-3.5Z" transform="translate(-194.72889 -162.91216)" fill="#e6e6e6"/><path d="M1000.27111,295.88774H730.27056a5.00587,5.00587,0,0,1-5-5V167.91216a5.00588,5.00588,0,0,1,5-5h270.00055a5.00589,5.00589,0,0,1,5,5V290.88774A5.0059,5.0059,0,0,1,1000.27111,295.88774Z" transform="translate(-194.72889 -162.91216)" fill="#fff"/><path d="M1000.27111,295.88774H730.27056a5.00587,5.00587,0,0,1-5-5V167.91216a5.00588,5.00588,0,0,1,5-5h270.00055a5.00589,5.00589,0,0,1,5,5V290.88774A5.0059,5.0059,0,0,1,1000.27111,295.88774ZM730.27056,164.91216a3.00327,3.00327,0,0,0-3,3V290.88774a3.00328,3.00328,0,0,0,3,3h270.00055a3.00328,3.00328,0,0,0,3-3V167.91216a3.00328,3.00328,0,0,0-3-3Z" transform="translate(-194.72889 -162.91216)" fill="#3f3d56"/><circle cx="570.54168" cy="38.48753" r="21" fill="#f9a826"/><path d="M813.77056,187.39969a3.5,3.5,0,0,0,0,7h165a3.5,3.5,0,1,0,0-7Z" transform="translate(-194.72889 -162.91216)" fill="#e6e6e6"/><path d="M813.77056,208.39969a3.5,3.5,0,0,0,0,7h71a3.5,3.5,0,1,0,0-7Z" transform="translate(-194.72889 -162.91216)" fill="#e6e6e6"/><path d="M749.163,241.9726c-2.66235,0-4.82892,1.57031-4.82892,3.5s2.16657,3.5,4.82892,3.5H976.81224c2.66236,0,4.82892-1.57032,4.82892-3.5s-2.16656-3.5-4.82892-3.5Z" transform="translate(-194.72889 -162.91216)" fill="#e6e6e6"/><path d="M749.163,262.9726c-2.66235,0-4.82892,1.57031-4.82892,3.5s2.16657,3.5,4.82892,3.5H976.81224c2.66236,0,4.82892-1.57032,4.82892-3.5s-2.16656-3.5-4.82892-3.5Z" transform="translate(-194.72889 -162.91216)" fill="#e6e6e6"/><path d="M1000.27111,621.88776H730.27056a5.00589,5.00589,0,0,1-5-5V493.91217a5.00589,5.00589,0,0,1,5-5h270.00055a5.00589,5.00589,0,0,1,5,5V616.88776A5.00589,5.00589,0,0,1,1000.27111,621.88776Z" transform="translate(-194.72889 -162.91216)" fill="#fff"/><path d="M1000.27111,621.88776H730.27056a5.00589,5.00589,0,0,1-5-5V493.91217a5.00589,5.00589,0,0,1,5-5h270.00055a5.00589,5.00589,0,0,1,5,5V616.88776A5.00589,5.00589,0,0,1,1000.27111,621.88776ZM730.27056,490.91217a3.00328,3.00328,0,0,0-3,3V616.88776a3.00328,3.00328,0,0,0,3,3h270.00055a3.00328,3.00328,0,0,0,3-3V493.91217a3.00328,3.00328,0,0,0-3-3Z" transform="translate(-194.72889 -162.91216)" fill="#3f3d56"/><circle cx="570.54168" cy="364.48752" r="21" fill="#f9a826"/><path d="M813.77056,513.39969a3.5,3.5,0,0,0,0,7h165a3.5,3.5,0,1,0,0-7Z" transform="translate(-194.72889 -162.91216)" fill="#e6e6e6"/><path d="M813.77056,534.39969a3.5,3.5,0,0,0,0,7h71a3.5,3.5,0,1,0,0-7Z" transform="translate(-194.72889 -162.91216)" fill="#e6e6e6"/><path d="M749.163,567.9726c-2.66235,0-4.82892,1.57031-4.82892,3.5s2.16657,3.5,4.82892,3.5H976.81224c2.66236,0,4.82892-1.57032,4.82892-3.5s-2.16656-3.5-4.82892-3.5Z" transform="translate(-194.72889 -162.91216)" fill="#e6e6e6"/><path d="M749.163,588.9726c-2.66235,0-4.82892,1.57031-4.82892,3.5s2.16657,3.5,4.82892,3.5H976.81224c2.66236,0,4.82892-1.57032,4.82892-3.5s-2.16656-3.5-4.82892-3.5Z" transform="translate(-194.72889 -162.91216)" fill="#e6e6e6"/><polygon points="260.368 559.988 273.754 556.099 265.127 502.618 245.371 508.357 260.368 559.988" fill="#9f616a"/><path d="M452.60931,713.46261h43.80824a0,0,0,0,1,0,0v16.92591a0,0,0,0,1,0,0H467.49617a14.88686,14.88686,0,0,1-14.88686-14.88686v-2.03905A0,0,0,0,1,452.60931,713.46261Z" transform="translate(936.83816 1119.92344) rotate(163.80301)" fill="#2f2e41"/><polygon points="122.037 560.307 135.976 560.306 142.607 506.541 122.034 506.542 122.037 560.307" fill="#9f616a"/><path d="M313.77892,719.23565h43.80824a0,0,0,0,1,0,0v16.92591a0,0,0,0,1,0,0H328.66578a14.88686,14.88686,0,0,1-14.88686-14.88686v-2.03905A0,0,0,0,1,313.77892,719.23565Z" transform="translate(476.6704 1292.46974) rotate(179.99738)" fill="#2f2e41"/><path d="M349.56288,536.06035a11.43311,11.43311,0,0,0-3.20829-17.23524l7.23755-39.97958-19.41432,8.2976-3.89648,36.69318a11.49507,11.49507,0,0,0,19.28154,12.224Z" transform="translate(-194.72889 -162.91216)" fill="#9f616a"/><path d="M330.98893,511.7187l19.11536,3.88086,8.85144-64.53564.02917-.06494,28.04285-62.84082c.015-.05664,3.38574-10.75977-.22815-17.688a10.32417,10.32417,0,0,0-6.3772-5.2002c-12.34582-3.7959-18.01526,5.12744-18.49048,5.92041l-22.77758,69.14795Z" transform="translate(-194.72889 -162.91216)" fill="#f9a826"/><path d="M438.38432,712.37691l-22.846-101.665L383.22709,542.747l-35.035,167.26416L295.997,704.21187,343.86613,527.5522c-.74683-2.70264-11.21265-43.02783,20.557-63.99072l5.49317-18.46778,47.17126,10.99951-.57226,44.0669,39.75049,90.85937,34.28369,105.12793Z" transform="translate(-194.72889 -162.91216)" fill="#2f2e41"/><path d="M418.7664,462.15278l-48.749-4.64257,1.14978-29.89258c-1.741-3.11328-24.66455-44.91748-9.54809-60.13086l4.58716-6.88037.10449-.0586c.18579-.105,18.75183-10.20556,34.74878,10.36084a141.13321,141.13321,0,0,0,11.77331,13.01465c10.25366,10.35449,17.03443,17.2002,7.65564,35.17774Z" transform="translate(-194.72889 -162.91216)" fill="#f9a826"/><circle cx="390.37841" cy="323.74971" r="27.92513" transform="translate(-302.17955 64.01093) rotate(-28.66321)" fill="#9f616a"/><path d="M401.91532,534.50465a11.43308,11.43308,0,0,0-7.46463-15.86271l-3.11326-40.51-16.68325,12.93969,5.51413,36.48515a11.49507,11.49507,0,0,0,21.747,6.94783Z" transform="translate(-194.72889 -162.91216)" fill="#9f616a"/><path d="M376.9268,516.70454l-10.30469-72.13427,4.56775-72.91749c.0321-.11767,3.38562-11.80273,17.41125-11.18847a11.29112,11.29112,0,0,1,8.18567,3.74707c5.53015,6.10107,4.97217,17.35742,4.9458,17.83349l-11.22534,67.875,7.87512,65.59229Z" transform="translate(-194.72889 -162.91216)" fill="#f9a826"/><path d="M427.039,302.372c-.99072-5.74658-5.76465-10.26709-11.13477-12.53967-5.3706-2.27258-11.31982-2.67621-17.14209-3.00043a91.12308,91.12308,0,0,0-14.86132.046,6.89528,6.89528,0,0,0,1.3081-2.91949c.42432-2.46338-1.04932-5.25171-3.53613-5.79346-1.78858-.38971-3.61719.37116-5.38623.89093-1.76953.51984-3.90967.7262-5.22412-.506-1.50244-1.40814-1.14307-3.95453-2.42676-5.55536-1.19971-1.49554-3.54736-1.70178-5.38526-.99689a14.23331,14.23331,0,0,0-4.67333,3.49457l-1.66114,1.64539c-.14453-.10773-.30273-.20484-.44336-.31537-4.37793-3.44061-6.5581-8.49054-4.07324-12.73444a12.93974,12.93974,0,0,0,.64844,14.032,16.46236,16.46236,0,0,0,1.25293,1.60821q-1.303,1.29035-2.60547,2.58075c-1.33887,1.32611-2.7876,2.97247-2.44727,4.78156.35694,1.89892,2.65723,2.92248,4.62793,2.63836a10.31576,10.31576,0,0,0,4.38428-2.04742,12.7171,12.7171,0,0,0-4.14258,4.91632,6.7587,6.7587,0,0,0,.74024,7.01886,6.37366,6.37366,0,0,0,4.22314,2.05273,32.63521,32.63521,0,0,0-5.37158,13.78827,33.91773,33.91773,0,0,0,15.45752,32.68585,18.55984,18.55984,0,0,0,9.90771,3.1529c3.51368-.0719,7.13037-1.82959,8.72412-4.96137,1.66065-3.26312.88624-7.17218.20215-10.769-.68457-3.59692-1.15136-7.64081.958-10.63367,2.10938-2.9928,7.80957-3.17486,8.76856.35883a18.512,18.512,0,0,1,19.60888-8.82215l1.52,2.44654C424.66593,318.41017,428.0297,308.11867,427.039,302.372Z" transform="translate(-194.72889 -162.91216)" fill="#2f2e41"/><path d="M576.72889,737.08784h-381a1,1,0,1,1,0-2h381a1,1,0,0,1,0,2Z" transform="translate(-194.72889 -162.91216)" fill="#ccc"/></svg>