<svg id="ff0c9448-1819-42bc-8108-45a86d359f61" data-name="Layer 1" xmlns="http://www.w3.org/2000/svg" width="830.41865" height="674.11409" viewBox="0 0 830.41865 674.11409"><path id="af2b64c4-1d88-45b0-a92f-54de07391bf6" data-name="Path 945" d="M599.9595,712.94294v-2c3.977,0,8.013-.083,12-.242l.08,2C608.02548,712.85994,603.96249,712.942,599.9595,712.94294Zm-12.075-.231c-4-.156-8.055-.4-12.057-.711l.157-1.994c3.976.314,8.006.552,11.978.707Zm36.21-.737-.159-1.994c3.969-.317,7.985-.721,11.938-1.2l.24,1.986c-3.979.481-8.022.886-12.019,1.206Zm-60.287-1.166c-3.988-.478-8.012-1.041-11.962-1.675l.317-1.975c3.923.63,7.921,1.189,11.882,1.663Zm84.265-1.729-.319-1.975c3.922-.634,7.894-1.359,11.8-2.154l.4,1.959c-3.935.8-7.934,1.531-11.882,2.17Zm-108.112-2.1c-3.936-.8-7.9-1.685-11.789-2.636l.476-1.943c3.861.946,7.8,1.827,11.709,2.618Zm131.781-2.717-.479-1.941c3.873-.953,7.772-2,11.59-3.1l.557,1.922c-3.845,1.113-7.771,2.164-11.668,3.123Zm-155.242-3.03c-3.856-1.113-7.738-2.318-11.536-3.582l.632-1.9c3.773,1.256,7.628,2.453,11.459,3.559Zm178.441-3.689-.634-1.9c3.775-1.262,7.577-2.618,11.3-4.033l.711,1.869c-3.749,1.425-7.577,2.791-11.378,4.061Zm-201.39-3.952c-3.752-1.422-7.531-2.941-11.233-4.519l.784-1.84c3.677,1.566,7.432,3.076,11.159,4.487Zm223.94-4.612-.785-1.84c3.656-1.562,7.327-3.217,10.91-4.921l.859,1.807c-3.607,1.715-7.3,3.382-10.984,4.954Zm-246.21-4.87891c-3.633-1.725-7.275-3.545-10.825-5.411l.931-1.77c3.526,1.853,7.143,3.661,10.751,5.374Zm267.977-5.475-.932-1.77c3.522-1.854,7.051-3.8,10.486-5.789l1,1.73c-3.459,2-7.011,3.962-10.557,5.828Zm-289.397-5.779c-3.485-2.015-6.966-4.122-10.347-6.264l1.07-1.689c3.357,2.127,6.815,4.221,10.277,6.223Zm310.269-6.3-1.07-1.689c3.353-2.124,6.715-4.35,9.993-6.616l1.137,1.645c-3.3,2.282-6.685,4.523-10.06,6.661Zm-330.7-6.638c-3.307-2.285-6.606-4.664-9.805-7.071l1.2-1.6c3.178,2.391,6.455,4.754,9.74,7.024Zm350.551-7.082-1.2-1.6c3.171-2.385,6.346-4.874,9.437-7.4l1.266,1.549c-3.111,2.542-6.308,5.048-9.5,7.448Zm-369.864-7.446c-3.105-2.537-6.2-5.172-9.2-7.832l1.326-1.5c2.982,2.642,6.058,5.26,9.142,7.779Zm388.558-7.827-1.326-1.5c2.979-2.641,5.946-5.378,8.817-8.135l1.385,1.443c-2.89,2.774-5.876,5.529-8.876,8.188Zm-406.641-8.2c-2.885-2.771-5.759-5.645-8.543-8.539l1.441-1.387c2.766,2.876,5.621,5.73,8.487,8.482Zm424.061-8.531-1.441-1.387c2.757-2.867,5.5-5.833,8.143-8.816l1.5,1.328c-2.664,3-5.422,5.988-8.2,8.875Zm-440.8-8.879c-2.667-3.006-5.3-6.1-7.831-9.192l1.549-1.266c2.512,3.073,5.129,6.146,7.778,9.13Zm456.832-9.194-1.549-1.266c2.527-3.09,5.021-6.268,7.414-9.444l1.6,1.2c-2.408,3.2-4.92,6.4-7.463,9.507Zm-472.116-9.492c-2.41-3.2-4.788-6.491-7.066-9.783l1.645-1.139c2.263,3.271,4.625,6.54,7.019,9.719Zm486.656-9.817-1.645-1.137c2.271-3.285,4.5-6.654,6.634-10.014l1.689,1.07c-2.14508,3.38611-4.39209,6.7771-6.67908,10.08411ZM346.28048,573.421c-2.143-3.379-4.248-6.849-6.255-10.313l1.73-1c1.994,3.441,4.085,6.888,6.213,10.244Zm513.338-10.4-1.73-1c2-3.46,3.956-7,5.809-10.521l1.77.932c-1.864,3.544-3.832,7.107-5.848,10.591Zm-525.426-10.47c-1.863-3.538-3.681-7.164-5.4-10.777l1.806-.859c1.709,3.589,3.515,7.19,5.365,10.705Zm536.688-10.942-1.807-.859c1.712-3.6,3.375-7.289,4.941-10.961l1.84.785C874.28048,534.26594,872.6025,537.983,870.88046,541.60893Zm-547.054-10.815c-1.575-3.684-3.093-7.441-4.511-11.17l1.869-.711c1.409,3.7,2.917,7.436,4.481,11.094Zm556.554-11.453-1.87-.709c1.418-3.741,2.777-7.555,4.038-11.333l1.9.633C883.1755,511.737,881.80746,515.57493,880.38046,519.341Zm-565.13-11.093c-1.273-3.8-2.485-7.682-3.6-11.53l1.921-.557c1.109,3.822,2.313,7.676,3.578,11.452Zm572.783-11.852-1.922-.555c1.1-3.816,2.146-7.716,3.1-11.592l1.941.477C890.19247,488.629,889.14346,492.55494,888.03347,496.396Zm-579.517-11.345c-.961-3.895-1.854-7.858-2.656-11.783l1.96-.4c.8,3.9,1.683,7.837,2.637,11.705Zm585.27695-12.11-1.961-.4c.791-3.9,1.514-7.867,2.148-11.8l1.975.318c-.639,3.963-1.366,7.961-2.162,11.884Zm-590.11294-11.555c-.641-3.948-1.211-7.972-1.695-11.959l1.985-.24c.48,3.961,1.047,7.957,1.684,11.879Zm593.953-12.293-1.986-.238c.476-3.959.877-7.976,1.191-11.938l1.994.158c-.317,3.989-.721,8.033-1.2,12.018Zm-596.853-11.682c-.323-3.995-.569-8.051-.731-12.058l2-.081c.162,3.979.406,8.009.727,11.978Zm598.778-12.391-2-.079c.156-3.985.236-8.021.236-12v-.663h2v.658c-.001,4.009-.08106,8.071-.239,12.084Zm-597.766-11.744h-2v-.336c0-3.9.076-7.853.226-11.739l2,.077c-.148,3.861-.224,7.786-.224,11.666Zm595.73606-12.988c-.165-3.971-.413-8-.739-11.977l1.994-.163c.327,4,.577,8.059.743,12.057Zm-594.811-10.988-1.994-.156c.314-4,.714-8.049,1.187-12.021l1.986.236C303.42648,381.30494,303.03048,385.32194,302.71749,389.29994Zm592.855-12.925c-.482-3.944-1.053-7.94-1.7-11.877l1.975-.323c.647,3.963,1.223,7.986,1.707,11.958Zm-590.02-10.9-1.975-.316c.634-3.96,1.357-7.959,2.15-11.886l1.96.4c-.788,3.9-1.506,7.873-2.136,11.807Zm586.147-12.779c-.8-3.908-1.694-7.845-2.65-11.7l1.941-.481c.963,3.883,1.86,7.847,2.668,11.781Zm-581.4-10.739-1.943-.475c.951-3.893,2-7.82,3.105-11.675l1.922.553c-1.10294,3.832-2.139,7.733-3.08393,11.599Zm575.628-12.548c-1.113-3.82-2.32-7.672-3.59-11.449l1.9-.637c1.277,3.8,2.493,7.68,3.613,11.526Zm-568.99191-10.506-1.9-.631c1.266-3.808,2.629-7.648,4.052-11.414l1.871.707C319.54647,311.30494,318.19247,315.12,316.93548,318.90294Zm561.345-12.237c-1.421-3.72-2.933-7.451-4.493-11.09l1.838-.788c1.571,3.663,3.094,7.419,4.524,11.164Zm-552.838-10.263-1.841-.783c1.572-3.695,3.242-7.41,4.963-11.04l1.807.856C328.66247,289.04294,327.00347,292.73294,325.44247,296.40294Zm543.409-11.728c-1.712-3.585-3.521-7.185-5.376-10.7l1.768-.934c1.869,3.538,3.69,7.162,5.413,10.771Zm-533.111-9.995-1.771-.929c1.864-3.553,3.828-7.119,5.836-10.6l1.732,1c-1.994,3.459-3.945,7.001-5.796,10.53Zm521.928-11.181c-2-3.443-4.094-6.887-6.225-10.238l1.688-1.073c2.146,3.374,4.253,6.841,6.267,10.307Zm-509.915-9.626-1.69-1.069c2.146-3.392,4.389-6.786,6.668-10.087l1.646,1.136c-2.26291,3.28-4.49094,6.651-6.62293,10.021Zm497.0571-10.594c-2.269-3.269-4.634-6.537-7.029-9.71l1.6-1.205c2.412,3.2,4.793,6.484,7.076,9.776Zm-483.414-9.17-1.6-1.2c2.41-3.208,4.917-6.409,7.452-9.516l1.55,1.265c-2.518,3.085-5.009,6.266-7.4,9.452Zm468.969-9.964c-2.522-3.078-5.144-6.146-7.788-9.121l1.494-1.329c2.663,2.995,5.3,6.084,7.841,9.183Zm-453.785-8.635-1.5-1.325c2.655-3,5.41-5.989,8.187-8.885l1.443,1.385c-2.759,2.876-5.5,5.846-8.133,8.825Zm437.855-9.292c-2.768-2.872-5.626-5.722-8.5-8.473l1.384-1.444c2.89,2.77,5.768,5.639,8.553,8.53Zm-421.244-8.025-1.387-1.441c2.886-2.777,5.87-5.535,8.868-8.2l1.328,1.5c-2.98306,2.643-5.947,5.383-8.81405,8.142Zm403.917-8.577c-2.988-2.642-6.067-5.256-9.15-7.77l1.264-1.55c3.1,2.53,6.2,5.162,9.211,7.822Zm-385.987-7.35-1.268-1.547c3.1-2.542,6.3-5.051,9.491-7.459l1.2,1.6C417.37548,177.24894,414.20349,179.74194,411.12148,182.26594Zm367.374-7.817c-3.19-2.395-6.471-4.754-9.747-7.014l1.135-1.646c3.3,2.275,6.6,4.65,9.813,7.061Zm-348.231-6.618-1.14-1.644c3.3-2.285,6.679-4.529,10.053-6.672l1.072,1.688c-3.351,2.128-6.711,4.357-9.986,6.627Zm328.46-7.015c-3.372-2.13-6.832-4.219-10.285-6.21l1-1.732c3.475,2,6.958,4.107,10.354,6.251Zm-308.233-5.83-1-1.73c3.458-2.005,7.008-3.97,10.55-5.839l.934,1.769C457.45248,151.04194,453.92648,152.99294,450.49148,154.98594Zm287.419-6.171c-3.532-1.851-7.151-3.655-10.758-5.362l.855-1.808c3.631,1.719,7.275,3.535,10.83,5.4Zm-266.238-5-.861-1.806c3.606-1.719,7.3-3.39,10.979-4.966l.787,1.838c-3.654,1.565-7.324,3.225-10.906,4.934Zm244.508-5.286c-3.676-1.561-7.432-3.066-11.164-4.476l.707-1.871c3.757,1.418,7.539,2.935,11.238,4.506Zm-222.509-4.135-.712-1.869c3.742-1.427,7.568-2.8,11.372-4.073l.636,1.9C501.18847,131.61494,497.38848,132.97694,493.67147,134.39394Zm200.009-4.36c-3.779-1.253-7.636-2.446-11.463-3.545l.553-1.922c3.853,1.106,7.734,2.307,11.539,3.569Zm-177.262-3.268-.559-1.92c3.846-1.119,7.771-2.175,11.665-3.138l.48,1.941C524.13748,124.60394,520.23849,125.65294,516.41848,126.76594Zm154.2-3.352c-3.861-.942-7.8-1.818-11.712-2.605l.395-1.961c3.937.792,7.9,1.675,11.792,2.623Zm-130.91-2.408-.4-1.959c3.921-.8,7.918-1.537,11.88-2.183l.322,1.974c-3.938.639-7.908,1.369-11.803,2.166Zm107.39-2.326c-3.933-.627-7.932-1.183-11.885-1.65l.235-1.986c3.979.471,8,1.03,11.964,1.662Zm-83.711-1.533-.242-1.985c3.979-.484,8.021-.9,12.017-1.219l.162,1.993c-3.97.32-7.986.73-11.937,1.209Zm59.886-1.29c-3.965-.309-8-.542-11.979-.693l.076-2c4.01.152,8.066.387,12.058.7Zm-35.972-.655-.082-2c4-.165,8.062-.252,12.076-.259v2c-3.985.007-8.022.094-11.995.257Z" transform="translate(-184.79068 -112.94296)" fill="#ccc"/><path d="M786.06,786.22907H414.05044c-18.59363-.02051-33.7367-14.27149-33.757-31.76856V247.213c.02136-17.49853,15.16443-31.74951,33.75647-31.769H786.05947c18.59375.01953,33.73682,14.27051,33.75708,31.76855V754.46C819.79531,771.95856,804.65224,786.20953,786.06,786.22907Z" transform="translate(-184.79068 -112.94296)" fill="#3f3d56"/><path d="M789.75552,755.69586H410.355c-6.01367-.00635-10.91162-4.354-10.91894-9.69238V259.02887c.00732-5.33887,4.90527-9.68652,10.91845-9.69287H789.755c6.01343.00635,10.91137,4.354,10.91894,9.69238V746.003C800.6664,751.34186,795.76846,755.68951,789.75552,755.69586Z" transform="translate(-184.79068 -112.94296)" fill="#fff"/><path id="a2e92954-9457-422e-9ad9-6983f1497d30" data-name="Path 45" d="M600.05146,404.936a59.973,59.973,0,0,1-60-59.946v-.054c0-.126,0-.258.007-.384a60,60,0,1,1,60,60.383h-.007Zm0-118.738a58.861,58.861,0,0,0-58.726,58.393c-.007.134-.007.244-.007.344a58.741,58.741,0,1,0,58.745-58.737h-.012Z" transform="translate(-184.79068 -112.94296)" fill="#e4e4e4"/><path d="M481.96447,465.132v-19a4.035,4.035,0,1,0-8.07,0v19a8.25,8.25,0,1,0,8.07,0Z" transform="translate(-184.79068 -112.94296)" fill="#f9a826"/><path d="M476.53448,446.132a1.38,1.38,0,0,1,2.75,0v12.26h-2.75Z" transform="translate(-184.79068 -112.94296)" fill="#fff"/><rect id="b3fb4dd5-f808-4e17-8bda-c83ab4154b38" data-name="Rectangle 212" x="328.2898" y="347.05399" width="226.077" height="2.67" fill="#e6e6e6" opacity="0.999" style="isolation:isolate"/><circle id="a8297b77-abf6-4c40-82ff-587ecc4408bb" data-name="Ellipse 309" cx="402.3998" cy="348.394" r="6.33" fill="#f9a826"/><rect id="bab01c70-216f-4a38-9df4-dd1bd7c7e26a" data-name="Rectangle 213" x="328.2898" y="347.05399" width="74.11" height="2.67" fill="#f9a826"/><rect id="e79b1bf0-5be3-436b-bf8d-05f197630a0c" data-name="Rectangle 214" x="328.2898" y="422.05799" width="226.077" height="2.67" fill="#e6e6e6"/><circle id="b712d611-a245-46ba-a930-54b84f7b4163" data-name="Ellipse 310" cx="458.3998" cy="423.39998" r="6.33" fill="#f9a826"/><rect id="b0ead41e-44a3-4ee0-8520-af8fabea1192" data-name="Rectangle 215" x="328.2898" y="422.05799" width="130.72" height="2.67" fill="#f9a826"/><rect id="b6f69233-a0f8-4d31-9338-7486181d31fc" data-name="Rectangle 216" x="328.2898" y="492.07398" width="226.077" height="2.67" fill="#e6e6e6"/><circle id="bad96c00-62fc-4855-8211-fc7f6ab481a1" data-name="Ellipse 311" cx="520.3998" cy="493.40398" r="6.33" fill="#f9a826"/><rect id="af19c379-2974-46fc-899f-5cc4a77f219a" data-name="Rectangle 217" x="328.2898" y="492.07398" width="192.72" height="2.67" fill="#f9a826"/><rect id="a7883c47-f1a1-461a-9e9c-5c6b67118f50" data-name="Rectangle 218" x="328.2898" y="561.70301" width="226.077" height="2.67" fill="#e6e6e6"/><circle id="b15fd4c9-9da1-4107-8e2e-e457c3dc6651" data-name="Ellipse 312" cx="402.3998" cy="563.03301" r="6.33" fill="#f9a826"/><rect id="ad5563c6-4e4d-449d-9957-f2853a47960a" data-name="Rectangle 219" x="328.2898" y="561.70301" width="74.11" height="2.67" fill="#f9a826"/><path id="eea30c9c-6cf0-4066-b912-86146cbd2118" data-name="Path 486" d="M962.85248,632.39792a7.685,7.685,0,0,1-6.453,1.187h0a7.678,7.678,0,0,1-5.4477-9.39289q.04029-.15143.08667-.30111a7.387,7.387,0,0,1,.422-1.052l-15.094-67.766a6.147,6.147,0,1,1,11.80554-3.43088l.01147.03989,14.249,67.974a7.67,7.67,0,0,1,.421,12.743Z" transform="translate(-184.79068 -112.94296)" fill="#feb8b8"/><path id="ac4255b8-020c-44e3-ab14-e14fd89a049c" data-name="Path 487" d="M982.89749,777.794h-8.187l-3.9-31.579h12.084Z" transform="translate(-184.79068 -112.94296)" fill="#a0616a"/><path id="af525750-d0e3-45ad-9660-762cb7e311b6" data-name="Path 488" d="M984.9855,785.73192h-26.4v-.334a10.276,10.276,0,0,1,10.274-10.275h16.125Z" transform="translate(-184.79068 -112.94296)" fill="#a0616a"/><path id="ba4a26e0-48da-419d-a14f-29a5450bbc55" data-name="Path 489" d="M982.89749,777.794h-8.187l-3.9-31.579h12.084Z" transform="translate(-184.79068 -112.94296)" fill="#feb8b8"/><path id="a2854e04-3283-490f-9f16-1ef57dfdaf34" data-name="Path 490" d="M984.9855,785.73192h-26.4v-.334a10.276,10.276,0,0,1,10.274-10.275h16.125Z" transform="translate(-184.79068 -112.94296)" fill="#2f2e41"/><path id="e3533895-20eb-437c-a8b9-d90aabae4705" data-name="Path 491" d="M900.81849,777.536l-7.79-2.521,6.013-31.244,11.5,3.719Z" transform="translate(-184.79068 -112.94296)" fill="#a0616a"/><path id="b380c79c-5b9e-4690-aa56-fb387712df26" data-name="Path 492" d="M900.36249,785.72793l-25.114-8.125.1-.318a10.276,10.276,0,0,1,12.938-6.614h0l15.34,4.963Z" transform="translate(-184.79068 -112.94296)" fill="#a0616a"/><path id="f995137d-2975-4d43-9c64-e41688abb776" data-name="Path 493" d="M900.81849,777.536l-7.79-2.521,6.013-31.244,11.5,3.719Z" transform="translate(-184.79068 -112.94296)" fill="#feb8b8"/><path id="fe32566e-b4de-4756-a6f4-50bd207e7260" data-name="Path 494" d="M900.36249,785.72793l-25.114-8.125.1-.318a10.276,10.276,0,0,1,12.938-6.614h0l15.34,4.963Z" transform="translate(-184.79068 -112.94296)" fill="#2f2e41"/><circle id="bf09f3df-614d-423b-8418-3c355284b19b" data-name="Ellipse 82" cx="751.52181" cy="410.02798" r="13.812" fill="#feb8b8"/><path id="bbed6af0-5d8d-4a23-96ff-6cc9a01bea53" data-name="Path 495" d="M956.1145,576.666c1.921-7.134-6.875-29.509-7.594-32.347-3.429-.791-11.375.726-16.26-.28-6.945,5.8-12.47,14.092-16.287,18.024-3.97,4.09-6.529,6.862-2.427,16.434a54.9688,54.9688,0,0,1,3.867,23.757l3.315,29.282s-13.812,38.674-12.707,64.642l-12.707,63.537a8.969,8.969,0,0,0,11.6,3.315s18.232-32.6,16.575-56.354l19.89-44.2s13.812,41.989,17.68,45.857l9.945,59.669s9.392,2.762,13.812,0c0,0,1.657-57.459-7.735-66.852,0,0-9.392-39.779-7.182-50.277s2.763-26.52-13.812-40.884c0,0,.166.076-4.972-9.392Z" transform="translate(-184.79068 -112.94296)" fill="#2f2e41"/><path id="a2a63551-b0d7-4a16-ad64-85d9a8343e67" data-name="Path 496" d="M943.51846,501.62293h0a11.951,11.951,0,0,0-2.307.229,10.111,10.111,0,0,0-4.4-1.015h-.4c-7.708,0-13.956,6.975-13.956,15.578h2.583l.417-3.175.611,3.175h2.151a30.44843,30.44843,0,0,0-1,7.8v15.861h3.9l2.261-5.875-.565,5.875h25.1l2.055-5.341-.514,5.341h2.826v-12.45C962.28049,513.26493,953.87949,501.62293,943.51846,501.62293Z" transform="translate(-184.79068 -112.94296)" fill="#2f2e41"/><path id="a1b5d12f-af35-486c-add9-83519abc8b05" data-name="Path 497" d="M915.95047,640.247a7.68505,7.68505,0,0,1-6.283-1.89h0a7.678,7.678,0,0,1-.56024-10.84387q.10528-.11673.21527-.22913a7.39852,7.39852,0,0,1,.856-.744l17.5-67.184a6.147,6.147,0,1,1,12.064,2.36707l-.002.01-18.348,66.982a7.67,7.67,0,0,1-5.442,11.53Z" transform="translate(-184.79068 -112.94296)" fill="#feb8b8"/><ellipse id="e20e7d5b-e8e8-4858-9628-d78b97e65045" data-name="Ellipse 314" cx="84.6198" cy="667.74397" rx="4.859" ry="6.362" fill="#f0f0f0"/><path d="M287.60635,709.584a23.2998,23.2998,0,0,0,0-28.79l-.002-.006a24.02513,24.02513,0,0,0,1.812-2.668l-12.77978-2.107,13.81885.105a23.36239,23.36239,0,0,0,.44189-18.454l-18.52392,9.62,17.09082-12.569a23.29188,23.29188,0,1,0-38.46582,26.065,23.77339,23.77339,0,0,0-2.65381,4.213l16.58593,8.616-17.686-5.89105a23.30552,23.30552,0,0,0,3.75,21.866,23.28275,23.28275,0,0,0,14.02588,37.27735,7.98109,7.98109,0,0,0-.46875,2.71264,7.65847,7.65847,0,0,0,1.02,3.89051,7.92874,7.92874,0,0,0,.00049,7.78149,7.92914,7.92914,0,0,0-.00342,7.77649,7.66163,7.66163,0,0,0-1.01709,3.8855c0,3.51361,2.17529,6.362,4.85888,6.362s4.85889-2.84839,4.85889-6.362a7.93026,7.93026,0,0,1,0-7.771,7.66,7.66,0,0,0-1.02051-3.891,7.92874,7.92874,0,0,0,.00049-7.78149,7.65847,7.65847,0,0,0,1.02-3.89051,7.97853,7.97853,0,0,0-.48486-2.75683A23.27682,23.27682,0,0,0,287.60635,709.584Z" transform="translate(-184.79068 -112.94296)" fill="#f0f0f0"/><path id="aa6e87ce-3387-49c0-864d-01816dc3159f" data-name="Path 1525" d="M246.02048,695.18293a23.172,23.172,0,0,0,4.979,14.395,23.285,23.285,0,1,0,36.612,0C290.7295,705.617,246.02048,692.56995,246.02048,695.18293Z" transform="translate(-184.79068 -112.94296)" opacity="0.05"/><path d="M229.81875,726.5329l-.00635-.007a13.42673,13.42673,0,0,0,1.00928-1.487l-7.12012-1.174,7.7002.059a13.01686,13.01686,0,0,0,.2456-10.281l-10.31982,5.36,9.522-7a12.977,12.977,0,1,0-21.43115,14.522,13.25833,13.25833,0,0,0-1.479,2.347l9.24121,4.8-9.85107-3.282a12.98477,12.98477,0,0,0,2.08887,12.183,12.96356,12.96356,0,0,0,7.81885,20.76306,4.42174,4.42174,0,0,0-.26856,1.514,4.34458,4.34458,0,0,1,0,4.336,4.344,4.344,0,0,1,0,4.334,4.34606,4.34606,0,0,1,0,4.33,4.344,4.344,0,0,1,0,4.334c0,1.95734,1.21191,3.544,2.707,3.544,1.49463,0,2.707-1.58667,2.707-3.544a4.34082,4.34082,0,0,1,0-4.334,4.34293,4.34293,0,0,1,0-4.33,4.34082,4.34082,0,0,1,0-4.334,4.3414,4.3414,0,0,1,0-4.336,4.42428,4.42428,0,0,0-.27881-1.53881,12.95918,12.95918,0,0,0,7.71485-20.73822A12.98159,12.98159,0,0,0,229.81875,726.5329Z" transform="translate(-184.79068 -112.94296)" fill="#f0f0f0"/><path d="M323.85146,743.82092l-.00586-.007a10.30368,10.30368,0,0,0,.77686-1.144l-5.48-.9,5.92627.045a10.02024,10.02024,0,0,0,.18994-7.913l-7.94336,4.125,7.3291-5.39a9.98792,9.98792,0,1,0-16.49267,11.17706,10.17186,10.17186,0,0,0-1.13819,1.807l7.11182,3.695-7.582-2.526a9.99366,9.99366,0,0,0,1.6084,9.377,9.97781,9.97781,0,0,0,6.01757,15.98194,3.40787,3.40787,0,0,0-.207,1.16607,3.34078,3.34078,0,0,1,0,3.338,3.3402,3.3402,0,0,1,0,3.336,3.34215,3.34215,0,0,1,0,3.332c0,1.50666.93311,2.728,2.084,2.728,1.15136,0,2.084-1.22137,2.084-2.728a3.34541,3.34541,0,0,1,0-3.332,3.34338,3.34338,0,0,1,0-3.336,3.344,3.344,0,0,1,0-3.338,3.394,3.394,0,0,0-.21484-1.18555,9.9745,9.9745,0,0,0,5.936-15.96246A9.99023,9.99023,0,0,0,323.85146,743.82092Z" transform="translate(-184.79068 -112.94296)" fill="#f0f0f0"/><path id="b799e5a5-ef38-4021-b162-aaf6c43020c5" data-name="Path 1517" d="M599.55648,239.76794a7.81805,7.81805,0,1,1,5.542-2.267A7.818,7.818,0,0,1,599.55648,239.76794Z" transform="translate(-184.79068 -112.94296)" fill="#fff"/><path id="b4f17ecd-a761-4c1d-9635-212bbdf6143f" data-name="Path 944" d="M1014.0935,787.05095h-828.187a1.006,1.006,0,1,1,0-2h828.187a1.006,1.006,0,1,1,0,2Z" transform="translate(-184.79068 -112.94296)" fill="#e6e6e6"/><circle cx="293.13879" cy="359.34203" r="4" fill="#fff"/><path d="M487.4639,532.285a8.51389,8.51389,0,1,1-17,0c0-4.97056,8-10,8-19C478.4639,508.59057,487.4639,527.31443,487.4639,532.285Z" transform="translate(-184.79068 -112.94296)" fill="#f9a826"/><path d="M484.06458,532.13571a5.109,5.109,0,1,1-10.20137,0c0-2.98273,4.80065-6.0008,4.80065-11.40153C478.66386,517.91715,484.06458,529.153,484.06458,532.13571Z" transform="translate(-184.79068 -112.94296)" fill="#fff"/><path d="M477.92447,589.84591c-6.85,0-12.37,5.15-12.37,11.52a11.34,11.34,0,0,0,5.28,9.5v3.73a1.71,1.71,0,0,0,1.76788,1.65009l.00211-.00007h10.64a1.71,1.71,0,0,0,1.76993-1.64788l.00006-.00214v-3.73a11.32,11.32,0,0,0,5.29-9.5C490.30448,594.99593,484.77448,589.84591,477.92447,589.84591Z" transform="translate(-184.79068 -112.94296)" fill="#f9a826"/><path d="M477.92562,592.876c-5.27764,0-9.53056,3.96788-9.53056,8.8757a8.737,8.737,0,0,0,4.068,7.31935v2.87379a1.31747,1.31747,0,0,0,1.36208,1.27132l.00162,0h8.19769a1.31749,1.31749,0,0,0,1.36365-1.26963l0-.00165V609.071a8.72159,8.72159,0,0,0,4.07573-7.31935C487.4639,596.84387,483.20327,592.876,477.92562,592.876Z" transform="translate(-184.79068 -112.94296)" fill="#fff"/><path d="M472.9639,617.785a1,1,0,0,0,0,2h10a1,1,0,1,0,0-2Z" transform="translate(-184.79068 -112.94296)" fill="#f9a826"/><path d="M472.9639,621.785a1,1,0,0,0,0,2h10a1,1,0,1,0,0-2Z" transform="translate(-184.79068 -112.94296)" fill="#f9a826"/><path d="M484.90732,661.285l.29663-.741a1.77681,1.77681,0,0,0-1.64954-2.43707H471.45627a1.7768,1.7768,0,0,0-1.7768,1.77679V661.285Z" transform="translate(-184.79068 -112.94296)" fill="#f9a826"/><path d="M483.3046,671.84688h-.00006a1.77679,1.77679,0,0,1-1.64954-2.43707l2.05145-5.12482h-14.027v11.2851a1.77677,1.77677,0,0,0,1.7768,1.77679h1.94641a1.7768,1.7768,0,0,1,1.77679,1.7768v7.19659a1.7768,1.7768,0,0,0,3.366.79462l6.34827-12.6966A1.77679,1.77679,0,0,0,483.3046,671.84688Z" transform="translate(-184.79068 -112.94296)" fill="#f9a826"/><path d="M471.4639,542.785a1.5,1.5,0,0,0,0,3h14a1.5,1.5,0,1,0,0-3Z" transform="translate(-184.79068 -112.94296)" fill="#f9a826"/><path d="M471.4639,548.785a1.5,1.5,0,0,0,0,3h14a1.5,1.5,0,1,0,0-3Z" transform="translate(-184.79068 -112.94296)" fill="#f9a826"/><circle cx="419.67322" cy="248.34203" r="1" fill="#f9a826"/><path d="M626.77011,343.20711l-26.04223-24.03894a1,1,0,0,0-1.35669.00012L587.4639,330.16347V325.285a1,1,0,0,0-1-1h-2a1,1,0,0,0-1,1v8.572L573.338,343.20723a1,1,0,0,0,.67841,1.73468h5.01306a1.00005,1.00005,0,0,1,1,1v24.39a1,1,0,0,0,1,1h38.04a1,1,0,0,0,1-1v-24.39a1,1,0,0,1,1-1h5.02234A1,1,0,0,0,626.77011,343.20711ZM594.44949,353.732h11.2a1,1,0,0,1,1,1v14.6h-13.2v-14.6A1,1,0,0,1,594.44949,353.732Z" transform="translate(-184.79068 -112.94296)" fill="#f9a826"/></svg>
